<?xml version="1.0" encoding="UTF-8" standalone="no"?>
<svg
   xmlns:dc="http://purl.org/dc/elements/1.1/"
   xmlns:cc="http://creativecommons.org/ns#"
   xmlns:rdf="http://www.w3.org/1999/02/22-rdf-syntax-ns#"
   xmlns:svg="http://www.w3.org/2000/svg"
   xmlns="http://www.w3.org/2000/svg"
   xmlns:sodipodi="http://sodipodi.sourceforge.net/DTD/sodipodi-0.dtd"
   xmlns:inkscape="http://www.inkscape.org/namespaces/inkscape"
   viewBox="0 0 330.00002 329.99999"
   height="330"
   width="330"
   xml:space="preserve"
   id="svg2"
   version="1.1"
   inkscape:version="0.91 r13725"
   sodipodi:docname="icon.svg"><sodipodi:namedview
     pagecolor="#ffffff"
     bordercolor="#666666"
     borderopacity="1"
     objecttolerance="10"
     gridtolerance="10"
     guidetolerance="10"
     inkscape:pageopacity="0"
     inkscape:pageshadow="2"
     inkscape:window-width="1858"
     inkscape:window-height="1057"
     id="namedview18"
     showgrid="false"
     fit-margin-top="0"
     fit-margin-left="10"
     fit-margin-right="10"
     fit-margin-bottom="0"
     inkscape:zoom="1.28"
     inkscape:cx="0.67433558"
     inkscape:cy="108.18947"
     inkscape:window-x="54"
     inkscape:window-y="-8"
     inkscape:window-maximized="1"
     inkscape:current-layer="g10" /><metadata
     id="metadata8"><rdf:RDF><cc:Work
         rdf:about=""><dc:format>image/svg+xml</dc:format><dc:type
           rdf:resource="http://purl.org/dc/dcmitype/StillImage" /><dc:title></dc:title></cc:Work></rdf:RDF></metadata><defs
     id="defs6" /><g
     transform="matrix(1.3333333,0,0,-1.3333333,-376.13802,846.73699)"
     id="g10"><g
       transform="matrix(1,0,0,-1,3.5009949,91.403327)"
       id="g12"
       style="fill:#000000;fill-opacity:1"><path
         id="path14"
         style="fill:#000000;fill-opacity:1;fill-rule:nonzero;stroke:none"
         d="m 341.47071,-438.88283 c 0,0 4.43066,0 4.43066,0 0,0 12.70997,10.58692 12.70997,10.58692 0,0 -4.3086,0 -4.3086,0 0,0 -12.83203,-10.58692 -12.83203,-10.58692 z"
         inkscape:connector-curvature="0" /><path
         id="path16"
         style="fill:#000000;fill-opacity:1;fill-rule:nonzero;stroke:none"
         d="m 289.60352,-436.56202 c 0,0 3.66895,0 3.66895,0 0,0 0,1.14599 0,1.14599 0,2.89063 1.51318,4.08203 5.54883,4.08203 0,0 8.43945,0 8.43945,0 5.91455,0 7.7959,-0.22851 7.7959,-3.71386 0,0 0,-0.18409 0,-0.18409 0,-2.24707 -0.64209,-3.48486 -5.36621,-3.48486 0,0 -12.15283,0 -12.15283,0 -5.5503,0 -7.61329,-1.78906 -7.61329,-6.23682 0,0 0,-1.37646 0,-1.37646 0,-3.80664 2.15528,-5.91602 11.87842,-5.91602 0,0 6.05274,0 6.05274,0 8.89795,0 10.13623,2.56836 10.13623,5.86914 0,0 0,1.23926 0,1.23926 0,0 -3.66895,0 -3.66895,0 0,0 0,-0.229 0,-0.229 0,-3.57715 -2.38525,-3.66895 -6.69629,-3.66895 0,0 -6.87793,0 -6.87793,0 -5.64209,0 -6.87988,0.54981 -6.87988,3.21094 0,0 0,0.87109 0,0.87109 0,1.92579 0.64209,3.02686 4.77002,3.02686 0,0 10.40967,0 10.40967,0 5.91601,0 9.95215,0.5957 9.95215,6.92383 0,0 0,0.0923 0,0.0923 0,6.55713 -6.0542,6.7876 -10.86914,6.7876 0,0 -7.24561,0 -7.24561,0 -5.8252,0 -11.28223,0 -11.28223,-7.01709 0,0 0,-1.42187 0,-1.42187 z"
         inkscape:connector-curvature="0" /><path
         id="path18"
         style="fill:#000000;fill-opacity:1;fill-rule:nonzero;stroke:none"
         d="m 322.48536,-442.75294 c 0,-7.70508 5.45801,-9.49317 12.9331,-9.49317 0,0 5.64112,0 5.64112,0 7.47607,0 12.9331,1.78809 12.9331,9.49317 0,0 0,5.13623 0,5.13623 0,7.70459 -5.45703,9.49365 -12.9331,9.49365 0,0 -5.64112,0 -5.64112,0 -7.47509,0 -12.9331,-1.78906 -12.9331,-9.49365 0,0 0,-5.13623 0,-5.13623 z m 27.56299,0.229 c 0,-5.45703 -3.20996,-6.51172 -7.79688,-6.51172 0,0 -8.0249,0 -8.0249,0 -4.58594,0 -7.79687,1.05469 -7.79687,6.51172 0,0 0,4.67822 0,4.67822 0,5.45801 3.21093,6.51172 7.79687,6.51172 0,0 8.0249,0 8.0249,0 4.58692,0 7.79688,-1.05371 7.79688,-6.51172 0,0 0,-4.67822 0,-4.67822 z"
         inkscape:connector-curvature="0" /><path
         id="path20"
         style="fill:#000000;fill-opacity:1;fill-rule:nonzero;stroke:none"
         d="m 383.52637,-432.5254 c 0,0 -0.0908,0 -0.0908,0 -1.46777,3.62304 -4.54101,4.40234 -9.44824,4.40234 0,0 -5.91601,0 -5.91601,0 -7.38379,0 -9.72266,-3.71484 -9.72266,-7.93408 0,0 0,-15.82276 0,-15.82276 0,0 3.94385,0 3.94385,0 0,0 0,14.85889 0,14.85889 0,3.43994 0.96289,5.68799 8.62207,5.68799 0,0 1.00879,0 1.00879,0 9.21826,0 11.32715,-1.74268 11.32715,-7.24707 0,0 0,-13.29981 0,-13.29981 0,0 3.94482,0 3.94482,0 0,0 0,23.38965 0,23.38965 0,0 -3.66895,0 -3.66895,0 0,0 0,-4.03515 0,-4.03515 z"
         inkscape:connector-curvature="0" /><path
         id="path22"
         style="fill:#000000;fill-opacity:1;fill-rule:nonzero;stroke:none"
         d="m 391.27637,-442.79786 c 0,-8.48487 5.87012,-9.44825 11.46534,-9.44825 0,0 6.32861,0 6.32861,0 7.06299,0 12.15332,1.78809 12.15332,10.13526 0,0 0,2.61377 0,2.61377 0,0 -26.00293,0 -26.00293,0 0,0 0,1.46728 0,1.46728 0,5.31983 2.56787,6.6958 9.44678,6.6958 0,0 5.41211,0 5.41211,0 4.95312,0 6.9707,-0.64062 7.1997,-4.21875 0,0 3.94434,0 3.94434,0 0,0 0,0.45899 0,0.45899 0,5.36523 -4.44824,6.9707 -11.78613,6.9707 0,0 -7.15479,0 -7.15479,0 -5.13623,0 -11.00635,-0.96387 -11.00635,-9.58594 0,0 0,-5.08886 0,-5.08886 z m 26.00293,-1.46924 c 0,-2.38379 -1.78759,-4.76856 -8.20898,-4.76856 0,0 -5.77881,0 -5.77881,0 -6.23681,0 -7.7041,1.00879 -8.0708,6.32764 0,0 22.05859,0 22.05859,0 0,0 0,-1.55908 0,-1.55908 z"
         inkscape:connector-curvature="0" /><path
         id="path24"
         style="fill:#000000;fill-opacity:1;fill-rule:nonzero;stroke:none"
         d="m 424.06641,-442.79786 c 0,-8.48487 5.87012,-9.44825 11.4668,-9.44825 0,0 6.32813,0 6.32813,0 7.0625,0 12.15332,1.78809 12.15332,10.13526 0,0 0,2.61377 0,2.61377 0,0 -26.00293,0 -26.00293,0 0,0 0,1.46728 0,1.46728 0,5.31983 2.56787,6.6958 9.44726,6.6958 0,0 5.41211,0 5.41211,0 4.95313,0 6.96875,-0.64062 7.19922,-4.21875 0,0 3.94434,0 3.94434,0 0,0 0,0.45899 0,0.45899 0,5.36523 -4.44922,6.9707 -11.78614,6.9707 0,0 -7.15429,0 -7.15429,0 -5.1377,0 -11.00782,-0.96387 -11.00782,-9.58594 0,0 0,-5.08886 0,-5.08886 z m 26.00391,-1.46924 c 0,-2.38379 -1.78906,-4.76856 -8.20898,-4.76856 0,0 -5.7793,0 -5.7793,0 -6.23633,0 -7.70459,1.00879 -8.07031,6.32764 0,0 22.05859,0 22.05859,0 0,0 0,-1.55908 0,-1.55908 z"
         inkscape:connector-curvature="0" /><path
         id="path26"
         style="fill:#000000;fill-opacity:1;fill-rule:nonzero;stroke:none"
         d="m 456.26173,-431.70118 c 0,0 20.77539,-16.87647 20.77539,-16.87647 0,0 0,-0.0923 0,-0.0923 0,0 -20.08789,0 -20.08789,0 0,0 0,-3.20997 0,-3.20997 0,0 25.5,0 25.5,0 0,0 0,3.20997 0,3.20997 0,0 -20.77539,16.87695 -20.77539,16.87695 0,0 0,0.0918 0,0.0918 0,0 21.0498,0 21.0498,0 0,0 0,3.21093 0,3.21093 0,0 -26.46191,0 -26.46191,0 0,0 0,-3.21093 0,-3.21093 z"
         inkscape:connector-curvature="0" /><path
         id="path28"
         style="fill:#000000;fill-opacity:1;fill-rule:nonzero;stroke:none"
         d="m 485.15333,-442.79786 c 0,-8.48487 5.87109,-9.44825 11.46582,-9.44825 0,0 6.32812,0 6.32812,0 7.06348,0 12.1543,1.78809 12.1543,10.13526 0,0 0,2.61377 0,2.61377 0,0 -26.00391,0 -26.00391,0 0,0 0,1.46728 0,1.46728 0,5.31983 2.56836,6.6958 9.44727,6.6958 0,0 5.41211,0 5.41211,0 4.95312,0 6.9707,-0.64062 7.20117,-4.21875 0,0 3.94336,0 3.94336,0 0,0 0,0.45899 0,0.45899 0,5.36523 -4.44922,6.9707 -11.78711,6.9707 0,0 -7.1543,0 -7.1543,0 -5.13574,0 -11.00683,-0.96387 -11.00683,-9.58594 0,0 0,-5.08886 0,-5.08886 z m 26.00488,-1.46924 c 0,-2.38379 -1.78906,-4.76856 -8.21094,-4.76856 0,0 -5.77734,0 -5.77734,0 -6.23731,0 -7.70508,1.00879 -8.07227,6.32764 0,0 22.06055,0 22.06055,0 0,0 0,-1.55908 0,-1.55908 z"
         inkscape:connector-curvature="0" /></g><g
       id="g4150"
       transform="matrix(1,0,0,-1,-118.22361,187.35646)"
       style="fill:#000000;fill-opacity:1"><path
         inkscape:connector-curvature="0"
         d="m 476.15234,-325.17041 c 0,0 3.94532,0 3.94532,0 0,0 0,12.93311 0,12.93311 0,0 0.0918,0 0.0918,0 0.82422,-2.43116 2.98047,-3.48536 7.47461,-3.48536 0,0 6.00782,0 6.00782,0 9.49316,0 12.38281,2.65918 12.38281,10.13526 0,0 0,4.12793 0,4.12793 0,8.0708 -4.99903,9.85986 -12.15332,9.85986 0,0 -5.50293,0 -5.50293,0 -4.12696,0 -7.33789,-1.23828 -8.48438,-4.08203 0,0 -0.0918,0 -0.0918,0 0,0 0,3.71484 0,3.71484 0,0 -3.66993,0 -3.66993,0 0,0 0,-33.20361 0,-33.20361 z m 25.95801,19.07812 c 0,-5.41113 -2.70508,-6.41992 -8.11719,-6.41992 0,0 -5.32031,0 -5.32031,0 -5.31933,0 -8.57519,0.917 -8.57519,6.51172 0,0 0,4.44922 0,4.44922 0,4.26465 1.88086,6.7417 7.75,6.7417 0,0 6.42089,0 6.42089,0 6.4209,0 7.8418,-2.15576 7.8418,-6.6958 0,0 0,-4.58692 0,-4.58692 z"
         style="fill:#000000;fill-opacity:1;fill-rule:nonzero;stroke:none"
         id="path4168" /><path
         inkscape:connector-curvature="0"
         d="m 509.35547,-306.22949 c 0,-7.70508 5.45898,-9.49317 12.93262,-9.49317 0,0 5.6416,0 5.6416,0 7.47461,0 12.93261,1.78809 12.93261,9.49317 0,0 0,5.13623 0,5.13623 0,7.70459 -5.458,9.49365 -12.93261,9.49365 0,0 -5.6416,0 -5.6416,0 -7.47364,0 -12.93262,-1.78906 -12.93262,-9.49365 0,0 0,-5.13623 0,-5.13623 z m 27.56348,0.229 c 0,-5.45703 -3.21094,-6.51172 -7.79688,-6.51172 0,0 -8.02539,0 -8.02539,0 -4.58691,0 -7.79688,1.05469 -7.79688,6.51172 0,0 0,4.67822 0,4.67822 0,5.45801 3.20997,6.51172 7.79688,6.51172 0,0 8.02539,0 8.02539,0 4.58594,0 7.79688,-1.05371 7.79688,-6.51172 0,0 0,-4.67822 0,-4.67822 z"
         style="fill:#000000;fill-opacity:1;fill-rule:nonzero;stroke:none"
         id="path4170" /><path
         inkscape:connector-curvature="0"
         d="m 553.61133,-304.44141 c 0,0 -11.09863,-10.91504 -11.09863,-10.91504 0,0 5.4121,0 5.4121,0 0,0 8.48438,8.57715 8.48438,8.57715 0,0 8.48437,-8.57715 8.48437,-8.57715 0,0 5.41211,0 5.41211,0 0,0 -11.09961,10.91504 -11.09961,10.91504 0,0 12.7959,12.47461 12.7959,12.47461 0,0 -5.64062,0 -5.64062,0 0,0 -9.95215,-10.13476 -9.95215,-10.13476 0,0 -9.95215,10.13476 -9.95215,10.13476 0,0 -5.6416,0 -5.6416,0 0,0 12.7959,-12.47461 12.7959,-12.47461 z"
         style="fill:#000000;fill-opacity:1;fill-rule:nonzero;stroke:none"
         id="path4172" /></g></g></svg>