<?xml version="1.0" encoding="UTF-8" standalone="no"?>
<svg
   xmlns:dc="http://purl.org/dc/elements/1.1/"
   xmlns:cc="http://creativecommons.org/ns#"
   xmlns:rdf="http://www.w3.org/1999/02/22-rdf-syntax-ns#"
   xmlns:svg="http://www.w3.org/2000/svg"
   xmlns="http://www.w3.org/2000/svg"
   xmlns:sodipodi="http://sodipodi.sourceforge.net/DTD/sodipodi-0.dtd"
   xmlns:inkscape="http://www.inkscape.org/namespaces/inkscape"
   width="1642"
   height="1638.88"
   viewBox="0 0 1642 1638.88"
   id="svg2"
   version="1.1"
   inkscape:version="0.91 r13725"
   sodipodi:docname="backward.svg">
  <metadata
     id="metadata10">
    <rdf:RDF>
      <cc:Work
         rdf:about="">
        <dc:format>image/svg+xml</dc:format>
        <dc:type
           rdf:resource="http://purl.org/dc/dcmitype/StillImage" />
        <dc:title></dc:title>
      </cc:Work>
    </rdf:RDF>
  </metadata>
  <defs
     id="defs8" />
  <sodipodi:namedview
     pagecolor="#ffffff"
     bordercolor="#666666"
     borderopacity="1"
     objecttolerance="10"
     gridtolerance="10"
     guidetolerance="10"
     inkscape:pageopacity="0"
     inkscape:pageshadow="2"
     inkscape:window-width="1842"
     inkscape:window-height="1057"
     id="namedview6"
     showgrid="false"
     fit-margin-left="50"
     fit-margin-top="50"
     fit-margin-right="50"
     fit-margin-bottom="50"
     inkscape:zoom="0.37249375"
     inkscape:cx="1251.6412"
     inkscape:cy="896.30464"
     inkscape:window-x="70"
     inkscape:window-y="-8"
     inkscape:window-maximized="1"
     inkscape:current-layer="svg2" />
  <path
     d="m 1547,64.44 q 19,-19 32,-13 13,6 13,32 l 0,1472 q 0,26 -13,32 -13,6 -32,-13 l -710,-710 q -8,-9 -13,-19 l 0,710 q 0,26 -13,32 -13,6 -32,-13 l -710,-710 q -19,-19 -19,-45 0,-26 19,-45 l 710,-710 q 19,-19 32,-13 13,6 13,32 l 0,710 q 5,-11 13,-19 z"
     id="path4"
     inkscape:connector-curvature="0" />
</svg>
