<?xml version="1.0" encoding="UTF-8" standalone="no"?>
<svg
   xmlns:dc="http://purl.org/dc/elements/1.1/"
   xmlns:cc="http://creativecommons.org/ns#"
   xmlns:rdf="http://www.w3.org/1999/02/22-rdf-syntax-ns#"
   xmlns:svg="http://www.w3.org/2000/svg"
   xmlns="http://www.w3.org/2000/svg"
   xmlns:sodipodi="http://sodipodi.sourceforge.net/DTD/sodipodi-0.dtd"
   xmlns:inkscape="http://www.inkscape.org/namespaces/inkscape"
   width="1636"
   height="1636"
   viewBox="0 0 1636 1636"
   id="svg2"
   version="1.1"
   inkscape:version="0.91 r13725"
   sodipodi:docname="pause.svg">
  <metadata
     id="metadata10">
    <rdf:RDF>
      <cc:Work
         rdf:about="">
        <dc:format>image/svg+xml</dc:format>
        <dc:type
           rdf:resource="http://purl.org/dc/dcmitype/StillImage" />
        <dc:title></dc:title>
      </cc:Work>
    </rdf:RDF>
  </metadata>
  <defs
     id="defs8" />
  <sodipodi:namedview
     pagecolor="#ffffff"
     bordercolor="#666666"
     borderopacity="1"
     objecttolerance="10"
     gridtolerance="10"
     guidetolerance="10"
     inkscape:pageopacity="0"
     inkscape:pageshadow="2"
     inkscape:window-width="1842"
     inkscape:window-height="1057"
     id="namedview6"
     showgrid="false"
     fit-margin-top="50"
     fit-margin-left="50"
     fit-margin-bottom="50"
     fit-margin-right="50"
     inkscape:zoom="0.13169643"
     inkscape:cx="818"
     inkscape:cy="818"
     inkscape:window-x="70"
     inkscape:window-y="-8"
     inkscape:window-maximized="1"
     inkscape:current-layer="svg2" />
  <path
     d="m 1586,114 0,1408 q 0,26 -19,45 -19,19 -45,19 l -512,0 q -26,0 -45,-19 -19,-19 -19,-45 l 0,-1408 q 0,-26 19,-45 19,-19 45,-19 l 512,0 q 26,0 45,19 19,19 19,45 z m -896,0 0,1408 q 0,26 -19,45 -19,19 -45,19 l -512,0 q -26,0 -45,-19 -19,-19 -19,-45 L 50,114 Q 50,88 69,69 88,50 114,50 l 512,0 q 26,0 45,19 19,19 19,45 z"
     id="path4"
     inkscape:connector-curvature="0" />
</svg>
